# This file uses centimeters as units for non-parametric coordinates.

mtllib target1.mtl
g default
v 19.021143 2.999999 6.180336
v 16.180352 3.000001 11.755704
v 11.755713 2.999999 16.180342
v 6.180343 2.999999 19.021134
v 0.000000 2.999997 20.000000
v -6.180343 2.999999 19.021132
v -11.755710 3.000001 16.180339
v -16.180346 2.999998 11.755704
v -19.021136 2.999999 6.180335
v -20.000005 2.999999 -0.000007
v -19.021136 3.000000 -6.180348
v -16.180344 3.000000 -11.755714
v -11.755707 2.999999 -16.180350
v -6.180341 2.999998 -19.021140
v -0.000001 3.000001 -20.000012
v 6.180339 3.000001 -19.021139
v 11.755705 2.999999 -16.180350
v 16.180340 2.999999 -11.755713
v 19.021132 3.000000 -6.180347
v 20.000000 2.999999 -0.000007
v 19.021143 1.499999 6.180336
v 16.180352 1.499999 11.755704
v 11.755713 1.500000 16.180340
v 6.180343 1.500001 19.021134
v 0.000000 1.499999 20.000005
v -6.180343 1.500000 19.021132
v -11.755710 1.499999 16.180339
v -16.180346 1.499999 11.755699
v -19.021136 1.500000 6.180335
v -20.000005 1.499999 -0.000007
v -19.021136 1.500001 -6.180350
v -16.180344 1.499998 -11.755712
v -11.755707 1.500000 -16.180350
v -6.180341 1.500003 -19.021140
v -0.000001 1.499998 -20.000007
v 6.180339 1.500001 -19.021139
v 11.755705 1.500000 -16.180350
v 16.180340 1.499997 -11.755711
v 19.021132 1.499998 -6.180347
v 20.000000 1.499999 -0.000007
v 19.021143 0.000000 6.180336
v 16.180352 -0.000001 11.755704
v 11.755713 -0.000001 16.180342
v 6.180343 -0.000001 19.021134
v 0.000000 0.000000 20.000000
v -6.180343 0.000000 19.021130
v -11.755710 -0.000001 16.180339
v -16.180346 0.000000 11.755701
v -19.021136 -0.000001 6.180333
v -20.000005 -0.000001 -0.000007
v -19.021136 -0.000001 -6.180350
v -16.180344 -0.000001 -11.755714
v -11.755707 0.000001 -16.180350
v -6.180341 -0.000002 -19.021140
v -0.000001 -0.000003 -20.000012
v 6.180339 0.000001 -19.021142
v 11.755705 0.000001 -16.180350
v 16.180340 0.000000 -11.755716
v 19.021132 -0.000000 -6.180347
v 20.000000 -0.000001 -0.000007
v 19.021143 -1.500001 6.180336
v 16.180352 -1.500001 11.755706
v 11.755713 -1.500000 16.180340
v 6.180343 -1.499999 19.021134
v 0.000000 -1.499998 20.000000
v -6.180343 -1.500001 19.021132
v -11.755710 -1.499999 16.180339
v -16.180346 -1.499999 11.755701
v -19.021136 -1.500001 6.180334
v -20.000005 -1.500001 -0.000007
v -19.021136 -1.500001 -6.180350
v -16.180344 -1.500003 -11.755714
v -11.755707 -1.500001 -16.180347
v -6.180341 -1.500000 -19.021143
v -0.000001 -1.500001 -20.000007
v 6.180339 -1.500000 -19.021139
v 11.755705 -1.500001 -16.180347
v 16.180340 -1.500001 -11.755716
v 19.021132 -1.500001 -6.180347
v 20.000000 -1.500001 -0.000007
v 19.021143 -3.000001 6.180336
v 16.180352 -2.999999 11.755704
v 11.755713 -3.000003 16.180342
v 6.180343 -3.000001 19.021132
v 0.000000 -3.000002 20.000005
v -6.180343 -3.000001 19.021132
v -11.755710 -3.000000 16.180339
v -16.180346 -3.000000 11.755701
v -19.021136 -3.000000 6.180333
v -20.000005 -3.000001 -0.000007
v -19.021136 -3.000000 -6.180347
v -16.180344 -3.000001 -11.755714
v -11.755707 -3.000000 -16.180350
v -6.180341 -3.000001 -19.021140
v -0.000001 -3.000003 -20.000007
v 6.180339 -2.999999 -19.021142
v 11.755705 -3.000000 -16.180350
v 16.180340 -3.000000 -11.755713
v 19.021132 -3.000000 -6.180346
v 20.000000 -3.000001 -0.000007
v 0.000000 -3.000001 -0.000007
v 15.073204 2.999999 4.897578
v 12.822036 2.999999 9.315745
v 9.315754 3.000001 12.822024
v 4.897581 2.999999 15.073197
v 0.000001 2.999998 15.848897
v -4.897580 3.000000 15.073196
v -9.315750 2.999998 12.822024
v -12.822030 3.000001 9.315742
v -15.073198 2.999999 4.897573
v -15.848898 2.999999 -0.000007
v -15.073198 2.999999 -4.897585
v -12.822027 2.999999 -9.315754
v -9.315748 2.999999 -12.822036
v -4.897579 3.000000 -15.073204
v -0.000001 2.999999 -15.848904
v 4.897577 2.999999 -15.073202
v 9.315745 2.999999 -12.822036
v 12.822024 2.999999 -9.315754
v 15.073193 2.999999 -4.897585
v 15.848894 2.999999 -0.000004
v 15.073204 2.999999 4.897578
v 12.822036 2.999999 9.315745
v 9.315754 3.000001 12.822024
v 4.897581 2.999999 15.073197
v 0.000001 2.999998 15.848897
v -4.897580 3.000000 15.073196
v -9.315750 2.999998 12.822024
v -12.822030 3.000001 9.315742
v -15.073198 2.999999 4.897573
v -15.848898 2.999999 -0.000007
v -15.073198 2.999999 -4.897585
v -12.822027 2.999999 -9.315754
v -9.315748 2.999999 -12.822036
v -4.897579 3.000000 -15.073204
v -0.000001 2.999999 -15.848904
v 4.897577 2.999999 -15.073202
v 9.315745 2.999999 -12.822036
v 12.822024 2.999999 -9.315754
v 15.073193 2.999999 -4.897585
v 15.848894 2.999999 -0.000004
v 10.643809 3.000000 3.458386
v 9.054169 2.999999 6.578229
v 6.578240 3.000000 9.054159
v 3.458385 3.000000 10.643803
v 0.000001 2.999998 11.191558
v -3.458382 3.000000 10.643803
v -6.578234 3.000000 9.054159
v -9.054161 3.000000 6.578227
v -10.643805 2.999999 3.458376
v -11.191559 2.999999 -0.000007
v -10.643805 3.000000 -3.458388
v -9.054160 2.999999 -6.578239
v -6.578233 2.999999 -9.054167
v -3.458382 2.999999 -10.643812
v -0.000002 3.000000 -11.191565
v 3.458380 3.000001 -10.643809
v 6.578230 3.000000 -9.054167
v 9.054155 3.000002 -6.578239
v 10.643800 2.999999 -3.458388
v 11.191558 3.000000 0.000002
v 6.214413 2.999999 2.019192
v 5.286302 2.999999 3.840714
v 0.000000 2.999999 -0.000007
v 3.840725 2.999999 5.286290
v 2.019188 3.000000 6.214411
v 0.000001 3.000000 6.534217
v -2.019184 3.000000 6.214411
v -3.840717 2.999999 5.286292
v -5.286294 3.000000 3.840714
v -6.214412 2.999999 2.019180
v -6.534220 2.999999 -0.000007
v -6.214413 2.999999 -2.019190
v -5.286294 2.999999 -3.840722
v -3.840716 2.999998 -5.286300
v -2.019184 3.000000 -6.214419
v -0.000004 2.999999 -6.534226
v 2.019182 2.999998 -6.214417
v 3.840714 2.999999 -5.286298
v 5.286289 3.000000 -3.840723
v 6.214408 2.999999 -2.019188
v 6.534218 2.999999 0.000006
vt 0.648603 0.107966
vt 0.626409 0.064408
vt 0.591842 0.029841
vt 0.548284 0.007647
vt 0.500000 -0.000000
vt 0.451716 0.007647
vt 0.408159 0.029841
vt 0.373591 0.064409
vt 0.351397 0.107966
vt 0.343750 0.156250
vt 0.351397 0.204534
vt 0.373591 0.248091
vt 0.408159 0.282659
vt 0.451716 0.304853
vt 0.500000 0.312500
vt 0.548284 0.304853
vt 0.591841 0.282659
vt 0.626409 0.248091
vt 0.648603 0.204534
vt 0.656250 0.156250
vt 0.375000 0.312500
vt 0.387500 0.312500
vt 0.400000 0.312500
vt 0.412500 0.312500
vt 0.425000 0.312500
vt 0.437500 0.312500
vt 0.450000 0.312500
vt 0.462500 0.312500
vt 0.475000 0.312500
vt 0.487500 0.312500
vt 0.500000 0.312500
vt 0.512500 0.312500
vt 0.525000 0.312500
vt 0.537500 0.312500
vt 0.550000 0.312500
vt 0.562500 0.312500
vt 0.575000 0.312500
vt 0.587500 0.312500
vt 0.600000 0.312500
vt 0.612500 0.312500
vt 0.625000 0.312500
vt 0.375000 0.406250
vt 0.387500 0.406250
vt 0.400000 0.406250
vt 0.412500 0.406250
vt 0.425000 0.406250
vt 0.437500 0.406250
vt 0.450000 0.406250
vt 0.462500 0.406250
vt 0.475000 0.406250
vt 0.487500 0.406250
vt 0.500000 0.406250
vt 0.512500 0.406250
vt 0.525000 0.406250
vt 0.537500 0.406250
vt 0.550000 0.406250
vt 0.562500 0.406250
vt 0.575000 0.406250
vt 0.587500 0.406250
vt 0.600000 0.406250
vt 0.612500 0.406250
vt 0.625000 0.406250
vt 0.375000 0.500000
vt 0.387500 0.500000
vt 0.400000 0.500000
vt 0.412500 0.500000
vt 0.425000 0.500000
vt 0.437500 0.500000
vt 0.450000 0.500000
vt 0.462500 0.500000
vt 0.475000 0.500000
vt 0.487500 0.500000
vt 0.500000 0.500000
vt 0.512500 0.500000
vt 0.525000 0.500000
vt 0.537500 0.500000
vt 0.550000 0.500000
vt 0.562500 0.500000
vt 0.575000 0.500000
vt 0.587500 0.500000
vt 0.600000 0.500000
vt 0.612500 0.500000
vt 0.625000 0.500000
vt 0.375000 0.593750
vt 0.387500 0.593750
vt 0.400000 0.593750
vt 0.412500 0.593750
vt 0.425000 0.593750
vt 0.437500 0.593750
vt 0.450000 0.593750
vt 0.462500 0.593750
vt 0.475000 0.593750
vt 0.487500 0.593750
vt 0.500000 0.593750
vt 0.512500 0.593750
vt 0.525000 0.593750
vt 0.537500 0.593750
vt 0.550000 0.593750
vt 0.562500 0.593750
vt 0.575000 0.593750
vt 0.587500 0.593750
vt 0.600000 0.593750
vt 0.612500 0.593750
vt 0.625000 0.593750
vt 0.375000 0.687500
vt 0.387500 0.687500
vt 0.400000 0.687500
vt 0.412500 0.687500
vt 0.425000 0.687500
vt 0.437500 0.687500
vt 0.450000 0.687500
vt 0.462500 0.687500
vt 0.475000 0.687500
vt 0.487500 0.687500
vt 0.500000 0.687500
vt 0.512500 0.687500
vt 0.525000 0.687500
vt 0.537500 0.687500
vt 0.550000 0.687500
vt 0.562500 0.687500
vt 0.575000 0.687500
vt 0.587500 0.687500
vt 0.600000 0.687500
vt 0.612500 0.687500
vt 0.625000 0.687500
vt 0.648603 0.795466
vt 0.626409 0.751908
vt 0.591842 0.717341
vt 0.548284 0.695147
vt 0.500000 0.687500
vt 0.451716 0.695147
vt 0.408159 0.717341
vt 0.373591 0.751909
vt 0.351397 0.795466
vt 0.343750 0.843750
vt 0.351397 0.892034
vt 0.373591 0.935591
vt 0.408159 0.970159
vt 0.451716 0.992353
vt 0.500000 1.000000
vt 0.548284 0.992353
vt 0.591841 0.970159
vt 0.626409 0.935591
vt 0.648603 0.892034
vt 0.656250 0.843750
vt 0.500000 0.156250
vt 0.500000 0.843750
vt 0.626409 0.064408
vt 0.648603 0.107966
vt 0.591842 0.029841
vt 0.548284 0.007647
vt 0.500000 -0.000000
vt 0.451716 0.007647
vt 0.408159 0.029841
vt 0.373591 0.064409
vt 0.351397 0.107966
vt 0.343750 0.156250
vt 0.351397 0.204534
vt 0.373591 0.248091
vt 0.408159 0.282659
vt 0.451716 0.304853
vt 0.500000 0.312500
vt 0.548284 0.304853
vt 0.591841 0.282659
vt 0.626409 0.248091
vt 0.648603 0.204534
vt 0.656250 0.156250
vt 0.626409 0.064408
vt 0.648603 0.107966
vt 0.591842 0.029841
vt 0.548284 0.007647
vt 0.500000 -0.000000
vt 0.451716 0.007647
vt 0.408159 0.029841
vt 0.373591 0.064409
vt 0.351397 0.107966
vt 0.343750 0.156250
vt 0.351397 0.204534
vt 0.373591 0.248091
vt 0.408159 0.282659
vt 0.451716 0.304853
vt 0.500000 0.312500
vt 0.548284 0.304853
vt 0.591841 0.282659
vt 0.626409 0.248091
vt 0.648603 0.204534
vt 0.656250 0.156250
vt 0.626409 0.064408
vt 0.648603 0.107966
vt 0.591842 0.029841
vt 0.548284 0.007647
vt 0.500000 -0.000000
vt 0.451716 0.007647
vt 0.408159 0.029841
vt 0.373591 0.064409
vt 0.351397 0.107966
vt 0.343750 0.156250
vt 0.351397 0.204534
vt 0.373591 0.248091
vt 0.408159 0.282659
vt 0.451716 0.304853
vt 0.500000 0.312500
vt 0.548284 0.304853
vt 0.591841 0.282659
vt 0.626409 0.248091
vt 0.648603 0.204534
vt 0.656250 0.156250
vt 0.626409 0.064408
vt 0.648603 0.107966
vt 0.591842 0.029841
vt 0.548284 0.007647
vt 0.500000 -0.000000
vt 0.451716 0.007647
vt 0.408159 0.029841
vt 0.373591 0.064409
vt 0.351397 0.107966
vt 0.343750 0.156250
vt 0.351397 0.204534
vt 0.373591 0.248091
vt 0.408159 0.282659
vt 0.451716 0.304853
vt 0.500000 0.312500
vt 0.548284 0.304853
vt 0.591841 0.282659
vt 0.626409 0.248091
vt 0.648603 0.204534
vt 0.656250 0.156250
vn 0.951057 0.000000 0.309016
vn 0.809017 0.000000 0.587785
vn 0.809017 0.000000 0.587785
vn 0.951057 0.000000 0.309016
vn 0.587785 -0.000000 0.809017
vn 0.587785 0.000000 0.809017
vn 0.309017 0.000000 0.951056
vn 0.309017 0.000000 0.951057
vn -0.000000 0.000002 1.000000
vn -0.000000 -0.000000 1.000000
vn -0.309017 0.000001 0.951056
vn -0.309017 -0.000000 0.951056
vn -0.587785 -0.000000 0.809017
vn -0.587785 -0.000000 0.809017
vn -0.809017 -0.000001 0.587785
vn -0.809017 -0.000000 0.587785
vn -0.951057 0.000000 0.309017
vn -0.951057 0.000000 0.309017
vn -1.000000 0.000000 -0.000000
vn -1.000000 0.000000 0.000000
vn -0.951056 -0.000001 -0.309017
vn -0.951056 0.000000 -0.309017
vn -0.809017 -0.000001 -0.587785
vn -0.809017 0.000000 -0.587785
vn -0.587785 -0.000000 -0.809017
vn -0.587785 -0.000000 -0.809017
vn -0.309017 -0.000001 -0.951057
vn -0.309017 -0.000000 -0.951057
vn 0.000001 -0.000002 -1.000000
vn 0.000000 0.000000 -1.000000
vn 0.309017 -0.000001 -0.951057
vn 0.309017 0.000000 -0.951057
vn 0.587785 -0.000000 -0.809017
vn 0.587785 0.000000 -0.809017
vn 0.809017 -0.000000 -0.587785
vn 0.809017 0.000000 -0.587785
vn 0.951056 -0.000001 -0.309017
vn 0.951057 -0.000000 -0.309017
vn 1.000000 -0.000000 -0.000001
vn 1.000000 -0.000000 -0.000001
vn 0.809017 0.000000 0.587785
vn 0.951057 -0.000000 0.309016
vn 0.587785 0.000000 0.809017
vn 0.309017 -0.000000 0.951057
vn -0.000000 -0.000001 1.000000
vn -0.309017 -0.000000 0.951056
vn -0.587785 0.000000 0.809017
vn -0.809017 -0.000000 0.587785
vn -0.951057 -0.000000 0.309017
vn -1.000000 0.000000 0.000000
vn -0.951056 0.000000 -0.309017
vn -0.809017 0.000000 -0.587785
vn -0.587785 0.000000 -0.809017
vn -0.309017 0.000000 -0.951057
vn 0.000000 0.000000 -1.000000
vn 0.309017 -0.000000 -0.951057
vn 0.587785 0.000000 -0.809017
vn 0.809017 0.000000 -0.587785
vn 0.951057 0.000000 -0.309017
vn 1.000000 -0.000000 -0.000001
vn 0.809017 -0.000000 0.587785
vn 0.951057 -0.000000 0.309016
vn 0.587785 -0.000000 0.809017
vn 0.309017 0.000000 0.951057
vn -0.000000 0.000001 1.000000
vn -0.309017 0.000001 0.951057
vn -0.587785 0.000000 0.809017
vn -0.809017 0.000000 0.587785
vn -0.951057 0.000000 0.309017
vn -1.000000 0.000000 -0.000000
vn -0.951057 -0.000000 -0.309017
vn -0.809017 -0.000000 -0.587785
vn -0.587785 -0.000000 -0.809017
vn -0.309017 -0.000000 -0.951057
vn 0.000000 -0.000001 -1.000000
vn 0.309017 -0.000000 -0.951057
vn 0.587785 0.000000 -0.809017
vn 0.809017 -0.000000 -0.587785
vn 0.951057 -0.000000 -0.309017
vn 1.000000 -0.000000 -0.000001
vn 0.809017 -0.000000 0.587785
vn 0.951057 -0.000000 0.309016
vn 0.587785 -0.000000 0.809017
vn 0.309017 0.000000 0.951057
vn -0.000000 0.000001 1.000000
vn -0.309017 0.000001 0.951057
vn -0.587785 0.000000 0.809017
vn -0.809017 0.000000 0.587785
vn -0.951057 0.000001 0.309017
vn -1.000000 0.000001 0.000000
vn -0.951056 -0.000000 -0.309017
vn -0.809017 0.000000 -0.587785
vn -0.587785 0.000000 -0.809017
vn -0.309017 -0.000000 -0.951057
vn -0.000000 -0.000000 -1.000000
vn 0.309017 0.000001 -0.951057
vn 0.587785 0.000001 -0.809017
vn 0.809017 -0.000000 -0.587785
vn 0.951057 -0.000000 -0.309017
vn 1.000000 -0.000000 -0.000001
vn -0.000000 1.000000 0.000000
vn -0.000000 1.000000 -0.000000
vn 0.000000 1.000000 -0.000000
vn 0.000000 1.000000 -0.000000
vn -0.000000 1.000000 -0.000000
vn 0.000000 1.000000 0.000000
vn 0.000000 1.000000 0.000000
vn 0.000000 1.000000 -0.000000
vn 0.000000 1.000000 -0.000000
vn -0.000000 1.000000 -0.000000
vn 0.000000 1.000000 0.000000
vn 0.000000 1.000000 0.000000
vn 0.000000 1.000000 -0.000000
vn -0.000000 1.000000 0.000000
vn -0.000000 1.000000 0.000000
vn 0.000000 1.000000 0.000000
vn -0.000000 1.000000 0.000000
vn -0.000000 1.000000 -0.000000
vn -0.000000 1.000000 0.000000
vn -0.000000 1.000000 0.000000
vn -0.000000 1.000000 -0.000000
vn -0.000000 -1.000000 0.000000
vn 0.000000 -1.000000 -0.000000
vn 0.000000 -1.000000 -0.000000
vn 0.000000 -1.000000 -0.000000
vn -0.000000 -1.000000 0.000000
vn 0.000000 -1.000000 -0.000000
vn -0.000000 -1.000000 -0.000000
vn -0.000000 -1.000000 -0.000000
vn -0.000000 -1.000000 0.000000
vn -0.000000 -1.000000 0.000000
vn 0.000000 -1.000000 0.000000
vn -0.000000 -1.000000 0.000000
vn 0.000000 -1.000000 0.000000
vn -0.000000 -1.000000 -0.000000
vn -0.000000 -1.000000 0.000000
vn 0.000000 -1.000000 0.000000
vn 0.000000 -1.000000 0.000000
vn -0.000000 -1.000000 -0.000000
vn 0.000000 -1.000000 -0.000000
vn 0.000000 -1.000000 -0.000000
vn 0.000000 -1.000000 -0.000000
vn -0.000000 1.000000 -0.000000
vn -0.000000 1.000000 -0.000000
vn -0.000000 1.000000 -0.000000
vn -0.000000 1.000000 -0.000000
vn 0.000000 1.000000 0.000000
vn 0.000000 1.000000 0.000000
vn -0.000000 1.000000 0.000000
vn -0.000000 1.000000 0.000000
vn -0.000000 1.000000 0.000000
vn -0.000000 1.000000 0.000000
vn 0.000000 1.000000 0.000000
vn 0.000000 1.000000 0.000000
vn 0.000000 1.000000 -0.000000
vn 0.000000 1.000000 -0.000000
vn -0.000000 1.000000 -0.000000
vn -0.000000 1.000000 0.000000
vn -0.000000 1.000000 0.000000
vn -0.000000 1.000000 0.000000
vn 0.000000 1.000000 0.000000
vn 0.000000 1.000000 0.000000
vn 0.000000 1.000000 0.000000
vn 0.000000 1.000000 0.000000
vn 0.000000 1.000000 0.000000
vn 0.000000 1.000000 0.000000
vn 0.000000 1.000000 -0.000000
vn 0.000000 1.000000 -0.000000
vn -0.000000 1.000000 -0.000000
vn -0.000000 1.000000 -0.000000
vn -0.000000 1.000000 0.000000
vn -0.000000 1.000000 0.000000
vn -0.000000 1.000000 0.000000
vn -0.000000 1.000000 0.000000
vn -0.000000 1.000000 0.000000
vn -0.000000 1.000000 0.000000
vn -0.000000 1.000000 0.000000
vn -0.000000 1.000000 0.000000
vn -0.000000 1.000000 0.000000
vn -0.000000 1.000000 0.000000
vn -0.000000 1.000000 0.000000
vn -0.000000 1.000000 0.000000
vn 0.000000 0.000000 0.000000
vn 0.000000 0.000000 0.000000
vn 0.000000 0.000000 0.000000
vn 0.000000 0.000000 0.000000
vn 0.000000 0.000000 0.000000
vn 0.000000 0.000000 0.000000
vn 0.000000 0.000000 0.000000
vn 0.000000 0.000000 0.000000
vn 0.000000 0.000000 0.000000
vn 0.000000 0.000000 0.000000
vn 0.000000 0.000000 0.000000
vn 0.000000 0.000000 0.000000
vn 0.000000 0.000000 0.000000
vn 0.000000 0.000000 0.000000
vn 0.000000 0.000000 0.000000
vn 0.000000 0.000000 0.000000
vn 0.000000 0.000000 0.000000
vn 0.000000 0.000000 0.000000
vn 0.000000 0.000000 0.000000
vn 0.000000 0.000000 0.000000
vn 0.000000 0.000000 0.000000
vn 0.000000 0.000000 0.000000
vn 0.000000 0.000000 0.000000
vn 0.000000 0.000000 0.000000
vn 0.000000 0.000000 0.000000
vn 0.000000 0.000000 0.000000
vn 0.000000 0.000000 0.000000
vn 0.000000 0.000000 0.000000
vn 0.000000 0.000000 0.000000
vn 0.000000 0.000000 0.000000
vn 0.000000 0.000000 0.000000
vn 0.000000 0.000000 0.000000
vn 0.000000 0.000000 0.000000
vn 0.000000 0.000000 0.000000
vn 0.000000 0.000000 0.000000
vn 0.000000 0.000000 0.000000
vn 0.000000 0.000000 0.000000
vn 0.000000 0.000000 0.000000
vn 0.000000 0.000000 0.000000
vn 0.000000 0.000000 0.000000
vn 0.000000 0.000000 0.000000
vn 0.000000 0.000000 0.000000
vn 0.000000 0.000000 0.000000
vn 0.000000 0.000000 0.000000
vn 0.000000 0.000000 0.000000
vn 0.000000 0.000000 0.000000
vn 0.000000 0.000000 0.000000
vn 0.000000 0.000000 0.000000
vn 0.000000 0.000000 0.000000
vn 0.000000 0.000000 0.000000
vn 0.000000 0.000000 0.000000
vn 0.000000 0.000000 0.000000
vn 0.000000 0.000000 0.000000
vn 0.000000 0.000000 0.000000
vn 0.000000 0.000000 0.000000
vn 0.000000 0.000000 0.000000
vn 0.000000 0.000000 0.000000
vn 0.000000 0.000000 0.000000
vn 0.000000 0.000000 0.000000
vn 0.000000 0.000000 0.000000
vn 0.000000 0.000000 0.000000
vn 0.000000 0.000000 0.000000
vn 0.000000 0.000000 0.000000
vn 0.000000 0.000000 0.000000
vn 0.000000 0.000000 0.000000
vn 0.000000 0.000000 0.000000
vn 0.000000 0.000000 0.000000
vn 0.000000 0.000000 0.000000
vn 0.000000 0.000000 0.000000
vn 0.000000 0.000000 0.000000
vn 0.000000 0.000000 0.000000
vn 0.000000 0.000000 0.000000
vn 0.000000 0.000000 0.000000
vn 0.000000 0.000000 0.000000
vn 0.000000 0.000000 0.000000
vn 0.000000 0.000000 0.000000
vn 0.000000 0.000000 0.000000
vn 0.000000 0.000000 0.000000
vn 0.000000 0.000000 0.000000
vn 0.000000 0.000000 0.000000
vn 0.000000 1.000000 -0.000000
vn 0.000000 1.000000 0.000000
vn 0.000000 1.000000 0.000000
vn 0.000000 1.000000 -0.000000
vn -0.000000 1.000000 -0.000000
vn -0.000000 1.000000 -0.000000
vn -0.000000 1.000000 0.000000
vn -0.000000 1.000000 0.000000
vn 0.000000 1.000000 0.000000
vn 0.000000 1.000000 0.000000
vn 0.000000 1.000000 0.000000
vn 0.000000 1.000000 0.000000
vn -0.000000 1.000000 0.000000
vn -0.000000 1.000000 0.000000
vn 0.000000 1.000000 -0.000000
vn 0.000000 1.000000 -0.000000
vn -0.000000 1.000000 -0.000000
vn -0.000000 1.000000 -0.000000
vn -0.000000 1.000000 0.000000
vn -0.000000 1.000000 0.000000
vn -0.000000 1.000000 -0.000000
vn -0.000000 1.000000 -0.000000
vn -0.000000 1.000000 -0.000000
vn 0.000000 1.000000 -0.000000
vn -0.000000 1.000000 -0.000000
vn -0.000000 1.000000 0.000000
vn -0.000000 1.000000 0.000000
vn -0.000000 1.000000 0.000000
vn 0.000000 1.000000 -0.000000
vn 0.000000 1.000000 -0.000000
vn 0.000000 1.000000 -0.000000
vn 0.000000 1.000000 -0.000000
vn 0.000000 1.000000 -0.000000
vn -0.000000 1.000000 -0.000000
vn 0.000000 1.000000 -0.000000
vn 0.000000 1.000000 -0.000000
vn 0.000000 1.000000 0.000000
vn 0.000000 1.000000 0.000000
vn 0.000000 1.000000 -0.000000
vn 0.000000 1.000000 -0.000000
s 1
g pCylinder3
usemtl lambert3SG
f 1/21/1 2/22/2 22/43/3 21/42/4
f 2/22/2 3/23/5 23/44/6 22/43/3
f 3/23/5 4/24/7 24/45/8 23/44/6
f 4/24/7 5/25/9 25/46/10 24/45/8
f 5/25/9 6/26/11 26/47/12 25/46/10
f 6/26/11 7/27/13 27/48/14 26/47/12
f 7/27/13 8/28/15 28/49/16 27/48/14
f 8/28/15 9/29/17 29/50/18 28/49/16
f 9/29/17 10/30/19 30/51/20 29/50/18
f 10/30/19 11/31/21 31/52/22 30/51/20
f 11/31/21 12/32/23 32/53/24 31/52/22
f 12/32/23 13/33/25 33/54/26 32/53/24
f 13/33/25 14/34/27 34/55/28 33/54/26
f 14/34/27 15/35/29 35/56/30 34/55/28
f 15/35/29 16/36/31 36/57/32 35/56/30
f 16/36/31 17/37/33 37/58/34 36/57/32
f 17/37/33 18/38/35 38/59/36 37/58/34
f 18/38/35 19/39/37 39/60/38 38/59/36
f 19/39/37 20/40/39 40/61/40 39/60/38
f 20/40/39 1/41/1 21/62/4 40/61/40
f 21/42/4 22/43/3 42/64/41 41/63/42
f 22/43/3 23/44/6 43/65/43 42/64/41
f 23/44/6 24/45/8 44/66/44 43/65/43
f 24/45/8 25/46/10 45/67/45 44/66/44
f 25/46/10 26/47/12 46/68/46 45/67/45
f 26/47/12 27/48/14 47/69/47 46/68/46
f 27/48/14 28/49/16 48/70/48 47/69/47
f 28/49/16 29/50/18 49/71/49 48/70/48
f 29/50/18 30/51/20 50/72/50 49/71/49
f 30/51/20 31/52/22 51/73/51 50/72/50
f 31/52/22 32/53/24 52/74/52 51/73/51
f 32/53/24 33/54/26 53/75/53 52/74/52
f 33/54/26 34/55/28 54/76/54 53/75/53
f 34/55/28 35/56/30 55/77/55 54/76/54
f 35/56/30 36/57/32 56/78/56 55/77/55
f 36/57/32 37/58/34 57/79/57 56/78/56
f 37/58/34 38/59/36 58/80/58 57/79/57
f 38/59/36 39/60/38 59/81/59 58/80/58
f 39/60/38 40/61/40 60/82/60 59/81/59
f 40/61/40 21/62/4 41/83/42 60/82/60
f 41/63/42 42/64/41 62/85/61 61/84/62
f 42/64/41 43/65/43 63/86/63 62/85/61
f 43/65/43 44/66/44 64/87/64 63/86/63
f 44/66/44 45/67/45 65/88/65 64/87/64
f 45/67/45 46/68/46 66/89/66 65/88/65
f 46/68/46 47/69/47 67/90/67 66/89/66
f 47/69/47 48/70/48 68/91/68 67/90/67
f 48/70/48 49/71/49 69/92/69 68/91/68
f 49/71/49 50/72/50 70/93/70 69/92/69
f 50/72/50 51/73/51 71/94/71 70/93/70
f 51/73/51 52/74/52 72/95/72 71/94/71
f 52/74/52 53/75/53 73/96/73 72/95/72
f 53/75/53 54/76/54 74/97/74 73/96/73
f 54/76/54 55/77/55 75/98/75 74/97/74
f 55/77/55 56/78/56 76/99/76 75/98/75
f 56/78/56 57/79/57 77/100/77 76/99/76
f 57/79/57 58/80/58 78/101/78 77/100/77
f 58/80/58 59/81/59 79/102/79 78/101/78
f 59/81/59 60/82/60 80/103/80 79/102/79
f 60/82/60 41/83/42 61/104/62 80/103/80
f 61/84/62 62/85/61 82/106/81 81/105/82
f 62/85/61 63/86/63 83/107/83 82/106/81
f 63/86/63 64/87/64 84/108/84 83/107/83
f 64/87/64 65/88/65 85/109/85 84/108/84
f 65/88/65 66/89/66 86/110/86 85/109/85
f 66/89/66 67/90/67 87/111/87 86/110/86
f 67/90/67 68/91/68 88/112/88 87/111/87
f 68/91/68 69/92/69 89/113/89 88/112/88
f 69/92/69 70/93/70 90/114/90 89/113/89
f 70/93/70 71/94/71 91/115/91 90/114/90
f 71/94/71 72/95/72 92/116/92 91/115/91
f 72/95/72 73/96/73 93/117/93 92/116/92
f 73/96/73 74/97/74 94/118/94 93/117/93
f 74/97/74 75/98/75 95/119/95 94/118/94
f 75/98/75 76/99/76 96/120/96 95/119/95
f 76/99/76 77/100/77 97/121/97 96/120/96
f 77/100/77 78/101/78 98/122/98 97/121/97
f 78/101/78 79/102/79 99/123/99 98/122/98
f 79/102/79 80/103/80 100/124/100 99/123/99
f 80/103/80 61/104/62 81/125/82 100/124/100
s 2
usemtl lambert1SG
f 163/208/101 162/209/102 164/146/103
f 165/210/104 163/208/101 164/146/103
f 166/211/105 165/210/104 164/146/103
f 167/212/106 166/211/105 164/146/103
f 168/213/107 167/212/106 164/146/103
f 169/214/108 168/213/107 164/146/103
f 170/215/109 169/214/108 164/146/103
f 171/216/110 170/215/109 164/146/103
f 172/217/111 171/216/110 164/146/103
f 173/218/112 172/217/111 164/146/103
f 174/219/113 173/218/112 164/146/103
f 175/220/114 174/219/113 164/146/103
f 176/221/115 175/220/114 164/146/103
f 177/222/116 176/221/115 164/146/103
f 178/223/117 177/222/116 164/146/103
f 179/224/118 178/223/117 164/146/103
f 180/225/119 179/224/118 164/146/103
f 181/226/120 180/225/119 164/146/103
f 182/227/121 181/226/120 164/146/103
f 162/209/102 182/227/121 164/146/103
s 3
f 81/144/122 82/143/123 101/147/124
f 82/143/123 83/142/125 101/147/124
f 83/142/125 84/141/126 101/147/124
f 84/141/126 85/140/127 101/147/124
f 85/140/127 86/139/128 101/147/124
f 86/139/128 87/138/129 101/147/124
f 87/138/129 88/137/130 101/147/124
f 88/137/130 89/136/131 101/147/124
f 89/136/131 90/135/132 101/147/124
f 90/135/132 91/134/133 101/147/124
f 91/134/133 92/133/134 101/147/124
f 92/133/134 93/132/135 101/147/124
f 93/132/135 94/131/136 101/147/124
f 94/131/136 95/130/137 101/147/124
f 95/130/137 96/129/138 101/147/124
f 96/129/138 97/128/139 101/147/124
f 97/128/139 98/127/140 101/147/124
f 98/127/140 99/126/141 101/147/124
f 99/126/141 100/145/142 101/147/124
f 100/145/142 81/144/122 101/147/124
s 4
usemtl lambert3SG
f 2/2/143 1/1/144 102/149/145 103/148/146
f 3/3/147 2/2/143 103/148/146 104/150/148
f 4/4/149 3/3/147 104/150/148 105/151/150
f 5/5/151 4/4/149 105/151/150 106/152/152
f 6/6/153 5/5/151 106/152/152 107/153/154
f 7/7/155 6/6/153 107/153/154 108/154/156
f 8/8/157 7/7/155 108/154/156 109/155/158
f 9/9/159 8/8/157 109/155/158 110/156/160
f 10/10/161 9/9/159 110/156/160 111/157/162
f 11/11/163 10/10/161 111/157/162 112/158/164
f 12/12/165 11/11/163 112/158/164 113/159/166
f 13/13/167 12/12/165 113/159/166 114/160/168
f 14/14/169 13/13/167 114/160/168 115/161/170
f 15/15/171 14/14/169 115/161/170 116/162/172
f 16/16/173 15/15/171 116/162/172 117/163/174
f 17/17/175 16/16/173 117/163/174 118/164/176
f 18/18/177 17/17/175 118/164/176 119/165/178
f 19/19/179 18/18/177 119/165/178 120/166/180
f 20/20/181 19/19/179 120/166/180 121/167/182
f 1/1/144 20/20/181 121/167/182 102/149/145
s off
usemtl initialShadingGroup
f 103/148/183 102/149/184 122/169/185 123/168/186
f 104/150/187 103/148/188 123/168/189 124/170/190
f 105/151/191 104/150/192 124/170/193 125/171/194
f 106/152/195 105/151/196 125/171/197 126/172/198
f 107/153/199 106/152/200 126/172/201 127/173/202
f 108/154/203 107/153/204 127/173/205 128/174/206
f 109/155/207 108/154/208 128/174/209 129/175/210
f 110/156/211 109/155/212 129/175/213 130/176/214
f 111/157/215 110/156/216 130/176/217 131/177/218
f 112/158/219 111/157/220 131/177/221 132/178/222
f 113/159/223 112/158/224 132/178/225 133/179/226
f 114/160/227 113/159/228 133/179/229 134/180/230
f 115/161/231 114/160/232 134/180/233 135/181/234
f 116/162/235 115/161/236 135/181/237 136/182/238
f 117/163/239 116/162/240 136/182/241 137/183/242
f 118/164/243 117/163/244 137/183/245 138/184/246
f 119/165/247 118/164/248 138/184/249 139/185/250
f 120/166/251 119/165/252 139/185/253 140/186/254
f 121/167/255 120/166/256 140/186/257 141/187/258
f 102/149/259 121/167/260 141/187/261 122/169/262
s 2
usemtl lambert1SG
f 123/168/263 122/169/264 142/189/265 143/188/266
f 124/170/267 123/168/263 143/188/266 144/190/268
f 125/171/269 124/170/267 144/190/268 145/191/270
f 126/172/271 125/171/269 145/191/270 146/192/272
f 127/173/273 126/172/271 146/192/272 147/193/274
f 128/174/275 127/173/273 147/193/274 148/194/276
f 129/175/277 128/174/275 148/194/276 149/195/278
f 130/176/279 129/175/277 149/195/278 150/196/280
f 131/177/281 130/176/279 150/196/280 151/197/282
f 132/178/283 131/177/281 151/197/282 152/198/284
f 133/179/285 132/178/283 152/198/284 153/199/286
f 134/180/287 133/179/285 153/199/286 154/200/288
f 135/181/289 134/180/287 154/200/288 155/201/290
f 136/182/291 135/181/289 155/201/290 156/202/292
f 137/183/293 136/182/291 156/202/292 157/203/294
f 138/184/295 137/183/293 157/203/294 158/204/296
f 139/185/297 138/184/295 158/204/296 159/205/298
f 140/186/299 139/185/297 159/205/298 160/206/300
f 141/187/301 140/186/299 160/206/300 161/207/302
f 122/169/264 141/187/301 161/207/302 142/189/265
usemtl lambert3SG
f 143/188/266 142/189/265 162/209/102 163/208/101
f 144/190/268 143/188/266 163/208/101 165/210/104
f 145/191/270 144/190/268 165/210/104 166/211/105
f 146/192/272 145/191/270 166/211/105 167/212/106
f 147/193/274 146/192/272 167/212/106 168/213/107
f 148/194/276 147/193/274 168/213/107 169/214/108
f 149/195/278 148/194/276 169/214/108 170/215/109
f 150/196/280 149/195/278 170/215/109 171/216/110
f 151/197/282 150/196/280 171/216/110 172/217/111
f 152/198/284 151/197/282 172/217/111 173/218/112
f 153/199/286 152/198/284 173/218/112 174/219/113
f 154/200/288 153/199/286 174/219/113 175/220/114
f 155/201/290 154/200/288 175/220/114 176/221/115
f 156/202/292 155/201/290 176/221/115 177/222/116
f 157/203/294 156/202/292 177/222/116 178/223/117
f 158/204/296 157/203/294 178/223/117 179/224/118
f 159/205/298 158/204/296 179/224/118 180/225/119
f 160/206/300 159/205/298 180/225/119 181/226/120
f 161/207/302 160/206/300 181/226/120 182/227/121
f 142/189/265 161/207/302 182/227/121 162/209/102
